<svg width="5380" height="495" viewBox="0 0 5380 495" fill="none" xmlns="http://www.w3.org/2000/svg">
<path d="M96.7273 384H0L125.636 11.6364H245.455L371.091 384H274.364L186.909 105.455H184L96.7273 384ZM83.8182 237.455H286V305.818H83.8182V237.455ZM489.909 388.727C472.091 388.727 456.273 385.758 442.455 379.818C428.758 373.758 417.909 364.667 409.909 352.545C402.03 340.303 398.091 324.97 398.091 306.545C398.091 291.03 400.818 277.939 406.273 267.273C411.727 256.606 419.242 247.939 428.818 241.273C438.394 234.606 449.424 229.576 461.909 226.182C474.394 222.667 487.727 220.303 501.909 219.091C517.788 217.636 530.576 216.121 540.273 214.545C549.97 212.848 557 210.485 561.364 207.455C565.848 204.303 568.091 199.879 568.091 194.182V193.273C568.091 183.939 564.879 176.727 558.455 171.636C552.03 166.545 543.364 164 532.455 164C520.697 164 511.242 166.545 504.091 171.636C496.939 176.727 492.394 183.758 490.455 192.727L408.455 189.818C410.879 172.848 417.121 157.697 427.182 144.364C437.364 130.909 451.303 120.364 469 112.727C486.818 104.97 508.212 101.091 533.182 101.091C551 101.091 567.424 103.212 582.455 107.455C597.485 111.576 610.576 117.636 621.727 125.636C632.879 133.515 641.485 143.212 647.545 154.727C653.727 166.242 656.818 179.394 656.818 194.182V384H573.182V345.091H571C566.03 354.545 559.667 362.545 551.909 369.091C544.273 375.636 535.242 380.545 524.818 383.818C514.515 387.091 502.879 388.727 489.909 388.727ZM517.364 330.545C526.939 330.545 535.545 328.606 543.182 324.727C550.939 320.848 557.121 315.515 561.727 308.727C566.333 301.818 568.636 293.818 568.636 284.727V258.182C566.091 259.515 563 260.727 559.364 261.818C555.848 262.909 551.97 263.939 547.727 264.909C543.485 265.879 539.121 266.727 534.636 267.455C530.152 268.182 525.848 268.848 521.727 269.455C513.364 270.788 506.212 272.848 500.273 275.636C494.455 278.424 489.97 282.061 486.818 286.545C483.788 290.909 482.273 296.121 482.273 302.182C482.273 311.394 485.545 318.424 492.091 323.273C498.758 328.121 507.182 330.545 517.364 330.545ZM813.182 388C792.576 388 773.848 382.667 757 372C740.152 361.333 726.697 345.333 716.636 324C706.576 302.667 701.545 276.182 701.545 244.545C701.545 211.697 706.758 184.667 717.182 163.455C727.606 142.242 741.242 126.545 758.091 116.364C775.061 106.182 793.303 101.091 812.818 101.091C827.485 101.091 840.03 103.636 850.455 108.727C860.879 113.697 869.485 120.121 876.273 128C883.061 135.879 888.212 144.061 891.727 152.545H893.545V11.6364H982.455V384H894.455V338.727H891.727C887.97 347.333 882.636 355.394 875.727 362.909C868.818 370.424 860.152 376.485 849.727 381.091C839.424 385.697 827.242 388 813.182 388ZM844.091 318.727C854.879 318.727 864.091 315.697 871.727 309.636C879.364 303.455 885.242 294.788 889.364 283.636C893.485 272.485 895.545 259.394 895.545 244.364C895.545 229.091 893.485 215.939 889.364 204.909C885.364 193.879 879.485 185.394 871.727 179.455C864.091 173.515 854.879 170.545 844.091 170.545C833.061 170.545 823.727 173.576 816.091 179.636C808.455 185.697 802.636 194.242 798.636 205.273C794.758 216.303 792.818 229.333 792.818 244.364C792.818 259.394 794.818 272.485 798.818 283.636C802.818 294.788 808.576 303.455 816.091 309.636C823.727 315.697 833.061 318.727 844.091 318.727ZM1117.41 388.727C1099.59 388.727 1083.77 385.758 1069.95 379.818C1056.26 373.758 1045.41 364.667 1037.41 352.545C1029.53 340.303 1025.59 324.97 1025.59 306.545C1025.59 291.03 1028.32 277.939 1033.77 267.273C1039.23 256.606 1046.74 247.939 1056.32 241.273C1065.89 234.606 1076.92 229.576 1089.41 226.182C1101.89 222.667 1115.23 220.303 1129.41 219.091C1145.29 217.636 1158.08 216.121 1167.77 214.545C1177.47 212.848 1184.5 210.485 1188.86 207.455C1193.35 204.303 1195.59 199.879 1195.59 194.182V193.273C1195.59 183.939 1192.38 176.727 1185.95 171.636C1179.53 166.545 1170.86 164 1159.95 164C1148.2 164 1138.74 166.545 1131.59 171.636C1124.44 176.727 1119.89 183.758 1117.95 192.727L1035.95 189.818C1038.38 172.848 1044.62 157.697 1054.68 144.364C1064.86 130.909 1078.8 120.364 1096.5 112.727C1114.32 104.97 1135.71 101.091 1160.68 101.091C1178.5 101.091 1194.92 103.212 1209.95 107.455C1224.98 111.576 1238.08 117.636 1249.23 125.636C1260.38 133.515 1268.98 143.212 1275.05 154.727C1281.23 166.242 1284.32 179.394 1284.32 194.182V384H1200.68V345.091H1198.5C1193.53 354.545 1187.17 362.545 1179.41 369.091C1171.77 375.636 1162.74 380.545 1152.32 383.818C1142.02 387.091 1130.38 388.727 1117.41 388.727ZM1144.86 330.545C1154.44 330.545 1163.05 328.606 1170.68 324.727C1178.44 320.848 1184.62 315.515 1189.23 308.727C1193.83 301.818 1196.14 293.818 1196.14 284.727V258.182C1193.59 259.515 1190.5 260.727 1186.86 261.818C1183.35 262.909 1179.47 263.939 1175.23 264.909C1170.98 265.879 1166.62 266.727 1162.14 267.455C1157.65 268.182 1153.35 268.848 1149.23 269.455C1140.86 270.788 1133.71 272.848 1127.77 275.636C1121.95 278.424 1117.47 282.061 1114.32 286.545C1111.29 290.909 1109.77 296.121 1109.77 302.182C1109.77 311.394 1113.05 318.424 1119.59 323.273C1126.26 328.121 1134.68 330.545 1144.86 330.545ZM1338.68 384V104.727H1425.05V155.636H1427.95C1433.05 137.212 1441.35 123.515 1452.86 114.545C1464.38 105.455 1477.77 100.909 1493.05 100.909C1497.17 100.909 1501.41 101.212 1505.77 101.818C1510.14 102.303 1514.2 103.091 1517.95 104.182V181.455C1513.71 180 1508.14 178.848 1501.23 178C1494.44 177.152 1488.38 176.727 1483.05 176.727C1472.5 176.727 1462.98 179.091 1454.5 183.818C1446.14 188.424 1439.53 194.909 1434.68 203.273C1429.95 211.515 1427.59 221.212 1427.59 232.364V384H1338.68ZM1798 190L1716.36 192.182C1715.52 186.364 1713.21 181.212 1709.45 176.727C1705.7 172.121 1700.79 168.545 1694.73 166C1688.79 163.333 1681.88 162 1674 162C1663.7 162 1654.91 164.061 1647.64 168.182C1640.48 172.303 1636.97 177.879 1637.09 184.909C1636.97 190.364 1639.15 195.091 1643.64 199.091C1648.24 203.091 1656.42 206.303 1668.18 208.727L1722 218.909C1749.88 224.242 1770.61 233.091 1784.18 245.455C1797.88 257.818 1804.79 274.182 1804.91 294.545C1804.79 313.697 1799.09 330.364 1787.82 344.545C1776.67 358.727 1761.39 369.758 1742 377.636C1722.61 385.394 1700.42 389.273 1675.45 389.273C1635.58 389.273 1604.12 381.091 1581.09 364.727C1558.18 348.242 1545.09 326.182 1541.82 298.545L1629.64 296.364C1631.58 306.545 1636.61 314.303 1644.73 319.636C1652.85 324.97 1663.21 327.636 1675.82 327.636C1687.21 327.636 1696.48 325.515 1703.64 321.273C1710.79 317.03 1714.42 311.394 1714.55 304.364C1714.42 298.061 1711.64 293.03 1706.18 289.273C1700.73 285.394 1692.18 282.364 1680.55 280.182L1631.82 270.909C1603.82 265.818 1582.97 256.424 1569.27 242.727C1555.58 228.909 1548.79 211.333 1548.91 190C1548.79 171.333 1553.76 155.394 1563.82 142.182C1573.88 128.848 1588.18 118.667 1606.73 111.636C1625.27 104.606 1647.15 101.091 1672.36 101.091C1710.18 101.091 1740 109.03 1761.82 124.909C1783.64 140.667 1795.7 162.364 1798 190ZM1937.59 224.727V384H1848.68V11.6364H1934.68V156H1937.77C1944.08 138.788 1954.38 125.333 1968.68 115.636C1983.11 105.939 2000.74 101.091 2021.59 101.091C2041.23 101.091 2058.32 105.455 2072.86 114.182C2087.41 122.788 2098.68 134.97 2106.68 150.727C2114.8 166.485 2118.8 184.909 2118.68 206V384H2029.77V223.455C2029.89 207.939 2026.02 195.818 2018.14 187.091C2010.26 178.364 1999.17 174 1984.86 174C1975.53 174 1967.29 176.061 1960.14 180.182C1953.11 184.182 1947.59 189.939 1943.59 197.455C1939.71 204.97 1937.71 214.061 1937.59 224.727ZM2284.18 384V11.6364H2374.18V169.091H2379.09L2502.18 11.6364H2608.18L2476.18 177.818L2610.55 384H2502.91L2410.18 237.636L2374.18 283.091V384H2284.18ZM2806.36 263.455V104.727H2895.09V384H2810.36V332H2807.45C2801.27 349.091 2790.73 362.667 2775.82 372.727C2761.03 382.667 2743.15 387.636 2722.18 387.636C2703.15 387.636 2686.42 383.273 2672 374.545C2657.58 365.818 2646.36 353.636 2638.36 338C2630.36 322.242 2626.3 303.818 2626.18 282.727V104.727H2715.09V265.273C2715.21 280.424 2719.21 292.364 2727.09 301.091C2734.97 309.818 2745.7 314.182 2759.27 314.182C2768.12 314.182 2776.06 312.242 2783.09 308.364C2790.24 304.364 2795.88 298.606 2800 291.091C2804.24 283.455 2806.36 274.242 2806.36 263.455ZM2951.68 384V104.727H3036.23V156H3039.32C3045.14 139.03 3054.95 125.636 3068.77 115.818C3082.59 106 3099.08 101.091 3118.23 101.091C3137.62 101.091 3154.23 106.061 3168.05 116C3181.86 125.939 3190.65 139.273 3194.41 156H3197.32C3202.53 139.394 3212.71 126.121 3227.86 116.182C3243.02 106.121 3260.89 101.091 3281.5 101.091C3307.92 101.091 3329.38 109.576 3345.86 126.545C3362.35 143.394 3370.59 166.545 3370.59 196V384H3281.68V216.364C3281.68 202.424 3278.11 191.818 3270.95 184.545C3263.8 177.152 3254.53 173.455 3243.14 173.455C3230.89 173.455 3221.26 177.455 3214.23 185.455C3207.32 193.333 3203.86 203.939 3203.86 217.273V384H3118.41V215.455C3118.41 202.485 3114.89 192.242 3107.86 184.727C3100.83 177.212 3091.56 173.455 3080.05 173.455C3072.29 173.455 3065.44 175.333 3059.5 179.091C3053.56 182.727 3048.89 187.939 3045.5 194.727C3042.23 201.515 3040.59 209.515 3040.59 218.727V384H2951.68ZM3504.41 388.727C3486.59 388.727 3470.77 385.758 3456.95 379.818C3443.26 373.758 3432.41 364.667 3424.41 352.545C3416.53 340.303 3412.59 324.97 3412.59 306.545C3412.59 291.03 3415.32 277.939 3420.77 267.273C3426.23 256.606 3433.74 247.939 3443.32 241.273C3452.89 234.606 3463.92 229.576 3476.41 226.182C3488.89 222.667 3502.23 220.303 3516.41 219.091C3532.29 217.636 3545.08 216.121 3554.77 214.545C3564.47 212.848 3571.5 210.485 3575.86 207.455C3580.35 204.303 3582.59 199.879 3582.59 194.182V193.273C3582.59 183.939 3579.38 176.727 3572.95 171.636C3566.53 166.545 3557.86 164 3546.95 164C3535.2 164 3525.74 166.545 3518.59 171.636C3511.44 176.727 3506.89 183.758 3504.95 192.727L3422.95 189.818C3425.38 172.848 3431.62 157.697 3441.68 144.364C3451.86 130.909 3465.8 120.364 3483.5 112.727C3501.32 104.97 3522.71 101.091 3547.68 101.091C3565.5 101.091 3581.92 103.212 3596.95 107.455C3611.98 111.576 3625.08 117.636 3636.23 125.636C3647.38 133.515 3655.98 143.212 3662.05 154.727C3668.23 166.242 3671.32 179.394 3671.32 194.182V384H3587.68V345.091H3585.5C3580.53 354.545 3574.17 362.545 3566.41 369.091C3558.77 375.636 3549.74 380.545 3539.32 383.818C3529.02 387.091 3517.38 388.727 3504.41 388.727ZM3531.86 330.545C3541.44 330.545 3550.05 328.606 3557.68 324.727C3565.44 320.848 3571.62 315.515 3576.23 308.727C3580.83 301.818 3583.14 293.818 3583.14 284.727V258.182C3580.59 259.515 3577.5 260.727 3573.86 261.818C3570.35 262.909 3566.47 263.939 3562.23 264.909C3557.98 265.879 3553.62 266.727 3549.14 267.455C3544.65 268.182 3540.35 268.848 3536.23 269.455C3527.86 270.788 3520.71 272.848 3514.77 275.636C3508.95 278.424 3504.47 282.061 3501.32 286.545C3498.29 290.909 3496.77 296.121 3496.77 302.182C3496.77 311.394 3500.05 318.424 3506.59 323.273C3513.26 328.121 3521.68 330.545 3531.86 330.545ZM3725.68 384V104.727H3812.05V155.636H3814.95C3820.05 137.212 3828.35 123.515 3839.86 114.545C3851.38 105.455 3864.77 100.909 3880.05 100.909C3884.17 100.909 3888.41 101.212 3892.77 101.818C3897.14 102.303 3901.2 103.091 3904.95 104.182V181.455C3900.71 180 3895.14 178.848 3888.23 178C3881.44 177.152 3875.38 176.727 3870.05 176.727C3859.5 176.727 3849.98 179.091 3841.5 183.818C3833.14 188.424 3826.53 194.909 3821.68 203.273C3816.95 211.515 3814.59 221.212 3814.59 232.364V384H3725.68ZM4305.73 104.727C4303.55 86.303 4294.7 72 4279.18 61.8182C4263.67 51.6364 4244.64 46.5454 4222.09 46.5454C4205.61 46.5454 4191.18 49.2121 4178.82 54.5454C4166.58 59.8788 4157 67.2121 4150.09 76.5454C4143.3 85.8788 4139.91 96.4848 4139.91 108.364C4139.91 118.303 4142.27 126.848 4147 134C4151.85 141.03 4158.03 146.909 4165.55 151.636C4173.06 156.242 4180.94 160.061 4189.18 163.091C4197.42 166 4205 168.364 4211.91 170.182L4249.73 180.364C4259.42 182.909 4270.21 186.424 4282.09 190.909C4294.09 195.394 4305.55 201.515 4316.45 209.273C4327.48 216.909 4336.58 226.727 4343.73 238.727C4350.88 250.727 4354.45 265.455 4354.45 282.909C4354.45 303.03 4349.18 321.212 4338.64 337.455C4328.21 353.697 4312.94 366.606 4292.82 376.182C4272.82 385.758 4248.52 390.545 4219.91 390.545C4193.24 390.545 4170.15 386.242 4150.64 377.636C4131.24 369.03 4115.97 357.03 4104.82 341.636C4093.79 326.242 4087.55 308.364 4086.09 288H4132.64C4133.85 302.061 4138.58 313.697 4146.82 322.909C4155.18 332 4165.73 338.788 4178.45 343.273C4191.3 347.636 4205.12 349.818 4219.91 349.818C4237.12 349.818 4252.58 347.03 4266.27 341.455C4279.97 335.758 4290.82 327.879 4298.82 317.818C4306.82 307.636 4310.82 295.758 4310.82 282.182C4310.82 269.818 4307.36 259.758 4300.45 252C4293.55 244.242 4284.45 237.939 4273.18 233.091C4261.91 228.242 4249.73 224 4236.64 220.364L4190.82 207.273C4161.73 198.909 4138.7 186.97 4121.73 171.455C4104.76 155.939 4096.27 135.636 4096.27 110.545C4096.27 89.697 4101.91 71.5151 4113.18 56C4124.58 40.3636 4139.85 28.2424 4159 19.6364C4178.27 10.9091 4199.79 6.54544 4223.55 6.54544C4247.55 6.54544 4268.88 10.8485 4287.55 19.4545C4306.21 27.9394 4321 39.5757 4331.91 54.3636C4342.94 69.1515 4348.76 85.9394 4349.36 104.727H4305.73ZM4422.77 384V104.727H4465.68V384H4422.77ZM4444.59 58.1818C4436.23 58.1818 4429.02 55.3333 4422.95 49.6364C4417.02 43.9394 4414.05 37.0909 4414.05 29.0909C4414.05 21.0909 4417.02 14.2424 4422.95 8.54544C4429.02 2.84848 4436.23 0 4444.59 0C4452.95 0 4460.11 2.84848 4466.05 8.54544C4472.11 14.2424 4475.14 21.0909 4475.14 29.0909C4475.14 37.0909 4472.11 43.9394 4466.05 49.6364C4460.11 55.3333 4452.95 58.1818 4444.59 58.1818ZM4587.18 216V384H4544.27V104.727H4585.73V148.364H4589.36C4595.91 134.182 4605.85 122.788 4619.18 114.182C4632.52 105.455 4649.73 101.091 4670.82 101.091C4689.73 101.091 4706.27 104.97 4720.45 112.727C4734.64 120.364 4745.67 132 4753.55 147.636C4761.42 163.152 4765.36 182.788 4765.36 206.545V384H4722.45V209.455C4722.45 187.515 4716.76 170.424 4705.36 158.182C4693.97 145.818 4678.33 139.636 4658.45 139.636C4644.76 139.636 4632.52 142.606 4621.73 148.545C4611.06 154.485 4602.64 163.152 4596.45 174.545C4590.27 185.939 4587.18 199.758 4587.18 216ZM4956.5 494.545C4935.77 494.545 4917.95 491.879 4903.05 486.545C4888.14 481.333 4875.71 474.424 4865.77 465.818C4855.95 457.333 4848.14 448.242 4842.32 438.545L4876.5 414.545C4880.38 419.636 4885.29 425.455 4891.23 432C4897.17 438.667 4905.29 444.424 4915.59 449.273C4926.02 454.242 4939.65 456.727 4956.5 456.727C4979.05 456.727 4997.65 451.273 5012.32 440.364C5026.98 429.455 5034.32 412.364 5034.32 389.091V332.364H5030.68C5027.53 337.455 5023.05 343.758 5017.23 351.273C5011.53 358.667 5003.29 365.273 4992.5 371.091C4981.83 376.788 4967.41 379.636 4949.23 379.636C4926.68 379.636 4906.44 374.303 4888.5 363.636C4870.68 352.97 4856.56 337.455 4846.14 317.091C4835.83 296.727 4830.68 272 4830.68 242.909C4830.68 214.303 4835.71 189.394 4845.77 168.182C4855.83 146.848 4869.83 130.364 4887.77 118.727C4905.71 106.97 4926.44 101.091 4949.95 101.091C4968.14 101.091 4982.56 104.121 4993.23 110.182C5004.02 116.121 5012.26 122.909 5017.95 130.545C5023.77 138.061 5028.26 144.242 5031.41 149.091H5035.77V104.727H5077.23V392C5077.23 416 5071.77 435.515 5060.86 450.545C5050.08 465.697 5035.53 476.788 5017.23 483.818C4999.05 490.97 4978.8 494.545 4956.5 494.545ZM4955.05 341.091C4972.26 341.091 4986.8 337.152 4998.68 329.273C5010.56 321.394 5019.59 310.061 5025.77 295.273C5031.95 280.485 5035.05 262.788 5035.05 242.182C5035.05 222.061 5032.02 204.303 5025.95 188.909C5019.89 173.515 5010.92 161.455 4999.05 152.727C4987.17 144 4972.5 139.636 4955.05 139.636C4936.86 139.636 4921.71 144.242 4909.59 153.455C4897.59 162.667 4888.56 175.03 4882.5 190.545C4876.56 206.061 4873.59 223.273 4873.59 242.182C4873.59 261.576 4876.62 278.727 4882.68 293.636C4888.86 308.424 4897.95 320.061 4909.95 328.545C4922.08 336.909 4937.11 341.091 4955.05 341.091ZM5198.68 216V384H5155.77V11.6364H5198.68V148.364H5202.32C5208.86 133.939 5218.68 122.485 5231.77 114C5244.98 105.394 5262.56 101.091 5284.5 101.091C5303.53 101.091 5320.2 104.909 5334.5 112.545C5348.8 120.061 5359.89 131.636 5367.77 147.273C5375.77 162.788 5379.77 182.545 5379.77 206.545V384H5336.86V209.455C5336.86 187.273 5331.11 170.121 5319.59 158C5308.2 145.758 5292.38 139.636 5272.14 139.636C5258.08 139.636 5245.47 142.606 5234.32 148.545C5223.29 154.485 5214.56 163.152 5208.14 174.545C5201.83 185.939 5198.68 199.758 5198.68 216Z" fill="white"/>
</svg>
